<?xml version="1.0" standalone="no"?>
<!DOCTYPE svg PUBLIC "-//W3C//DTD SVG 1.1//EN" "http://www.w3.org/Graphics/SVG/1.1/DTD/svg11.dtd">
<svg xmlns:xlink="http://www.w3.org/1999/xlink" xmlns="http://www.w3.org/2000/svg" xml:space="preserve" style="max-height: 500px" viewBox="0 0 61.775999999999996 60.80625" y="0px" x="0px" id="Layer_1" version="1.1" width="61.7760009765625" height="60.806251525878906">
<style type="text/css">
	.st0{fill-rule:evenodd;clip-rule:evenodd;fill:#F65F2C;}
	.st1{fill-rule:evenodd;clip-rule:evenodd;fill:#78865E;}
</style>
<title>logo</title>
<path d="M114.6,39.7h-5c0-0.6,1.1-4.7,1.3-5.5l2.9-10.6c0.3-0.9,0.5-1.7,0.8-2.6c0.2-0.5,0.2-0.9,0.4-1.4&#10;&#9;s0.2-0.9,0.5-1.3c-0.3,3.4-0.4,7-0.4,10.7l-0.2,5.4C114.6,35.8,114.9,38.2,114.6,39.7 M89.7,58.7H106l2.2-9.5h3.8&#10;&#9;c2.6,0,1.5-0.3,1.3,5.7c0,1.4-0.1,2.5-0.1,3.8h16.1c0-6.4-0.4-13.7-0.4-20c0-1.3-0.1-2-0.1-3.2s0-2.4,0-3.5c0-0.7-0.1-0.8-0.1-1.5&#10;&#9;l-0.1-5v-3.4c0-1.3-0.1-2.1-0.1-3.4c0-2.4-0.1-4.3-0.1-6.6L128,5.4c-2.4,0-22.3-0.2-22.8,0.1c-0.3,0.7-0.6,1.4-0.7,2.1&#10;&#9;c-0.2,0.8-0.4,1.4-0.6,2.2l-2.6,8.8c-0.2,0.9-0.4,1.4-0.7,2.2l-4.5,15.6c-0.2,0.7-0.4,1.4-0.7,2.2l-0.7,2.3&#10;&#9;c-0.9,3.1-2.4,8.7-3.2,11.1L89.7,58.7z" class="st0"/>
<path d="M175.3,46.8c0,4.9,1.1,8.3,4.5,10.4c5.6,3.4,15.5,3.5,21.7,1.1c4.7-1.9,7.9-4.7,9.7-9.4&#10;&#9;c0.7-2.2,1.2-4.4,1.6-6.7l0.7-4.9h-15.8c-0.4,1.5-0.8,5.8-1.1,7.7s-0.5,5.7-3.2,5.7c-2.2,0-2.9-1-2.5-3.2c0.1-0.9,0.1-1.7,0.3-2.6&#10;&#9;l2.5-18c0.2-1.9,1.4-10.8,2.4-12.4s4.5-1.5,4.5,0.3c0,2.6-0.2,5.2-0.7,7.7c-0.1,1-0.3,2-0.5,3.1s-0.2,2.2-0.5,3.2&#10;&#9;c4.8,0,9.6,0,14.3,0c2,0,1.5,0.2,1.8-1.7c0.6-3.6,0.9-7.3,1-11c0-4.8-1.5-6.6-5-9c-5.7-4-18.2-3.5-24.6,0.6c-1.7,1-3.2,2.3-4.4,3.9&#10;&#9;c-0.2,0.2-0.2,0.4-0.4,0.6c-1.6,2.3-2,4.1-2.6,6.9l-0.9,5.4c-0.1,1.2-0.4,2.4-0.6,3.6s-0.3,2.6-0.5,3.7&#10;&#9;C176.3,36.9,175.7,41.9,175.3,46.8" class="st0"/>
<path d="M137.3,22.3c0,7.2,3.9,9.4,9.2,12.7c2.5,1.5,4.9,3.2,7.1,5.1c2.2,2.2,1.1,8.7-0.6,10c-1,0.8-4.2,1.3-4.2-1.2&#10;&#9;c0.1-2.5,0.4-5,0.9-7.4c0.1-0.3,0.1-0.7,0.1-1.1s0.3-0.8-0.3-0.8h-13.9c-0.6,0-0.6,1.2-0.7,1.9c-0.6,5.5-2.1,11.4,2.9,15.2&#10;&#9;c1.8,1.3,3.8,2.2,5.9,2.6c3.8,0.8,7.7,1,11.6,0.3c0.6-0.1,1.2-0.2,1.9-0.4c2.2-0.5,6.6-2.3,8.1-3.8c1.8-1.5,3-3.6,3.6-5.9&#10;&#9;c0.9-3.2,1.3-6.5,1.3-9.8c0.1-3.5-1.4-6.8-4.2-8.9c-2-1.6-4-3-6.2-4.3l-5.4-3.4c-0.6-0.4-1.1-0.9-1.5-1.5c-0.6-1.2-0.5-3.6-0.2-5&#10;&#9;s1.3-3,2.9-3c1.8,0,2.2,0.3,2.2,2.2c0,2.2-0.7,3.8-0.7,6.1h14.8l0.4-3.3c0.3-1.8,0.4-3.7,0.3-5.5c0-1.6-0.6-3.2-1.8-4.3&#10;&#9;c-0.5-0.5-1-1-1.6-1.4c-4.7-3.2-11.3-3.3-16.8-2.7l-3.9,0.8c-1.1,0.4-2.2,0.8-3.3,1.3c-1,0.5-2,1.2-2.8,1.9&#10;&#9;c-0.4,0.3-0.8,0.7-1.2,1.1c-2.2,2.8-2.8,4.8-3.4,8.3C137.5,19.5,137.3,20.9,137.3,22.3" class="st0"/>
<path d="M17.8,57.1c0.3-1,2.5-5.5,3.1-6.8c3-6.7,6.5-13.4,9.7-20.2c1-2.3,2.2-4.4,3.2-6.7c2-4.4,4.4-9.1,6.4-13.6&#10;&#9;c0.5-1.1,1.1-2.3,1.6-3.4c0.3-0.7,1.6-2.9,1.3-3.5c-3.3-1.7-6.9-2.7-10.6-3h-4.2c-1.1,0.1-2.2,0.2-3.4,0.5&#10;&#9;c-4.1,0.8-8.1,2.4-11.6,4.7C6.7,9.5,3.4,15.2,1.2,22.7c-0.7,2.4-1.1,4.9-1.2,7.5v2.1c0,0.9,0.1,1.7,0.2,2.6l1,4.6&#10;&#9;c1.6-0.1,7.9-8.5,8.7-9.8c0.2-0.4,0.4-0.5,0.6-0.9c0.4-0.6,0.7-1.2,1.1-1.9c0.9-1.4,1.4-2.5,2.1-3.6c0.5-1,1-1.9,1.4-3l1.4-3&#10;&#9;c0.2-0.3,0.3-0.7,0.5-1c0.1-0.4,0.2-0.7,0.4-1.1c1.2-1.8,3.6,0.4,3.9,0.5c-0.2,1.8-5.6,11.8-6.4,13c-2.9,5-6.5,9.6-10.5,13.7&#10;&#9;l-1.3,1.3c-1,0.8-2,1.7-2.9,2.7c0.7,0.2,1.3,0.4,2,0.6c0.8,0.2,1.3,0.3,2,0.6l4.1,1.1c1,0.3,1.1,0.1,1.7-0.5l1.3-1.3&#10;&#9;c2.5-2.7,4.9-5.6,7.1-8.6c0.3-0.5,0.7-1,1-1.5c1.5-2.1,2.8-4.2,3.9-6.5c0.3-0.6,0.6-1.1,0.9-1.7l3.2-7.2c0.5-1.3,0.9-2.5,1.4-3.9&#10;&#9;l2.3-8.1C32.1,5.3,31.8,5,33,4.8c1.1-0.2,2.2,0.1,3.1,0.7c2.5,1.4,1,3.7-0.3,7.4c-0.4,1.2-0.9,2.5-1.4,3.8c-1.4,3.7-3,7.4-4.7,11&#10;&#9;l-3.6,6.8c-1.8,3.3-3.9,6.4-6.2,9.3c-1.5,2-3.1,3.8-4.8,5.6c-1.2,1.4-2.6,2.7-4,3.9c-0.3,0.2-0.4,0.4-0.6,0.6l-3.2,2.7&#10;&#9;c-0.2,0.2-0.2,0-0.3,0.4c0.9,0,1.8,0,2.7,0c0.8,0.1,1.8,0,2.7,0.1C14.2,57.3,16,57.3,17.8,57.1" class="st1"/>
<path d="M17.8,57.1c3.3,1.8,7,2.9,10.7,3H32c1.3-0.1,2.7-0.2,4-0.5c4.1-0.8,8-2.4,11.6-4.7c1.1-0.7,2.1-1.5,3-2.4&#10;&#9;c0.3-0.3,0.4-0.3,0.7-0.6l2-2.1c3.5-4.3,5.9-9.4,6.9-14.8c0.6-3.6,1.1-6.2,0.5-9.9c-0.2-1.5-0.6-3-1.1-4.4c-0.8,0.2-3,2.6-3.6,3.4&#10;&#9;L52.6,28c-0.4,0.6-0.8,1.1-1.2,1.6c-2.7,3.6-5.6,9.8-7.5,14c-0.5,1.2-0.8,2.1-2.5,1.7c-0.7-0.1-1.4-0.5-1.8-1.2&#10;&#9;c0.2-0.8,0.5-1.5,0.9-2.2c0.2-0.4,0.3-0.7,0.5-1.1l2.7-5.3c1.4-2.8,3-5.5,4.8-8l3.3-4.6c1.2-1.5,2.5-2.9,3.8-4.3l2.4-2.5&#10;&#9;c0.8-0.8,1.7-1.6,2.7-2.2v-0.4c-1.4,0-6.5-1.7-8.1-2.1c-1.3-0.4-1.6,0.3-2.3,1.1c-0.3,0.4-0.3,0.3-0.7,0.7c-0.8,1-1.7,1.8-2.5,2.7&#10;&#9;l-2.3,2.8c-1.1,1.5-2.3,2.9-3.3,4.5l-3,4.9c-4,7-6.9,14.6-8.7,22.6c-0.1,0.6-0.8,4-0.9,4.2c-0.8,1.3-4.6,0-5.2-1.7&#10;&#9;c-0.4-1.2,1.8-6.3,2.3-7.9c1.1-3.2,2.3-6.3,3.7-9.3c1-2,1.8-4.2,2.9-6.1l2.3-4.3c1.7-2.5,6.1-9.5,8-11.5l7-7.3&#10;&#9;c0.8-0.8,3.7-3.1,4.2-3.7c-1,0-1.7-0.1-2.6-0.1c-0.4,0-0.9,0-1.3,0c-0.7,0-0.7-0.1-1.3-0.1c-0.8,0-1.8,0-2.7,0&#10;&#9;c-0.6,0-2.2-0.2-2.7,0.1c0.3,0.6-1,2.8-1.3,3.4c-0.6,1.1-1.1,2.2-1.6,3.4c-2.1,4.5-4.5,9.2-6.4,13.6c-1,2.3-2.1,4.4-3.2,6.7&#10;&#9;c-3.1,6.8-6.7,13.6-9.7,20.2C20.3,51.7,18.1,56.1,17.8,57.1" class="st0"/>
<path d="M74.1,18.3l-4.5,30.5c-0.3,2.4-1.3,8.2-1.5,10.1H84c0.5-1,1.3-8.5,1.6-10.2c0.7-4.2,1.3-9.4,2-13.8l2.3-16.2&#10;&#9;c0.1-0.5,0.2-0.5-0.2-0.7L76,18.1C75.2,18.1,74.7,18.3,74.1,18.3" class="st0"/>
<path d="M74.7,15l16-0.2L91.3,9c0.2-1,0.2-1.8,0.4-2.9s0.6-1-2.2-1H76.2c-0.4,1.6-0.5,3.3-0.8,4.9&#10;&#9;C75.1,11.7,74.8,13.3,74.7,15" class="st0"/>
</svg>